# xmcd
#
# Track frame offsets:
#	150
#	12448
#	22343
#	34646
#	45787
#	58291
#	71020
#	81824
#	94292
#	103791
#	115961
#	129656
#	140698
#	150764
#	160832
#	172342
#	183216
#
# Disc length: 2591 seconds
#
# Revision: 0
# Processed by: cddbd v1.5.2PL0 Copyright (c) Steve Scherf et al.
# Submitted via: dBpowerAMP V4.0
#
DISCID=e70a1d11
DTITLE=Collection Québec Info Musique - Ronald 'Soldat' Lebrun
DYEAR=1900
DGENRE=
TTITLE0=Adieu chérie
TTITLE1=Donne-moi ton coeur
TTITLE2=J'ai pleuré trois fois
TTITLE3=La Complainte d'une mère
TTITLE4=La Prière d'une maman
TTITLE5=La Mort d'un cowboy des prairies
TTITLE6=Lettre d'un soldat canadien
TTITLE7=Le Grand Saint-laurent
TTITLE8=Le Coeur délaissé
TTITLE9=Un Baiser de mon fils
TTITLE10=Réponse à la prière d'une mère
TTITLE11=Pour te garder longtemps
TTITLE12=Retour au petit foyer
TTITLE13=Courageux canadiens
TTITLE14=Des Roses pour toi
TTITLE15=L'Adieu du soldat
TTITLE16=La Vie d'un cowboy
EXTD=
EXTT0=
EXTT1=
EXTT2=
EXTT3=
EXTT4=
EXTT5=
EXTT6=
EXTT7=
EXTT8=
EXTT9=
EXTT10=
EXTT11=
EXTT12=
EXTT13=
EXTT14=
EXTT15=
EXTT16=
PLAYORDER=
